<?xml version="1.0" encoding="UTF-8"?>
<svg width="67px" height="19px" viewBox="0 0 67 19" version="1.1" xmlns="http://www.w3.org/2000/svg" xmlns:xlink="http://www.w3.org/1999/xlink">
    <!-- Generator: Sketch 61 (89581) - https://sketch.com -->
    <title>&lt;TC/&gt;</title>
    <desc>Created with Sketch.</desc>
    <g id="Page-1" stroke="none" stroke-width="1" fill="none" fill-rule="evenodd">
        <g id="MacBook-Pro-15&quot;" transform="translate(-41.000000, -10.000000)" fill-rule="nonzero">
            <g id="&lt;TC/&gt;" transform="translate(41.104000, 10.456000)">
                <path d="M12.192,17.736 L12.192,15.288 L3.216,11.472 L12.192,7.656 L12.192,5.208 L0,10.608 L0,12.336 L12.192,17.736 Z M21.912,17.544 L21.912,3 L27.36,3 L27.36,0.408 L13.488,0.408 L13.488,3 L18.912,3 L18.912,17.544 L21.912,17.544 Z" id="&lt;T" fill="#FF5252"></path>
                <path d="M36.648,17.952 C40.8,17.952 43.68,15.12 43.944,11.016 L41.016,11.016 C40.752,13.512 39.336,15.504 36.648,15.504 C32.976,15.504 31.44,12.264 31.44,8.976 C31.44,5.688 32.976,2.448 36.648,2.448 C39.144,2.448 40.416,3.864 40.92,5.856 L43.92,5.856 C43.536,2.16 40.536,1.77635684e-15 36.648,1.77635684e-15 C31.536,1.77635684e-15 28.44,4.104 28.44,8.976 C28.44,13.896 31.536,17.952 36.648,17.952 Z M46.944,17.952 L53.832,1.77635684e-15 L51.216,1.77635684e-15 L44.328,17.952 L46.944,17.952 Z M54.408,17.736 L66.6,12.336 L66.6,10.608 L54.408,5.208 L54.408,7.656 L63.384,11.472 L54.408,15.288 L54.408,17.736 Z" id="C/&gt;" fill="#EEEEEE"></path>
            </g>
        </g>
    </g>
</svg>